<svg width="256" height="256" viewBox="0 0 256 256" fill="none" xmlns="http://www.w3.org/2000/svg">
  <defs>
    <linearGradient id="bg" x1="32" y1="24" x2="212" y2="228" gradientUnits="userSpaceOnUse">
      <stop stop-color="#0B1220"/>
      <stop offset="1" stop-color="#111D34"/>
    </linearGradient>
    <linearGradient id="ring" x1="44" y1="44" x2="216" y2="216" gradientUnits="userSpaceOnUse">
      <stop stop-color="#67E8F9"/>
      <stop offset="0.52" stop-color="#A855F7"/>
      <stop offset="1" stop-color="#34D399"/>
    </linearGradient>
    <linearGradient id="wave" x1="68" y1="96" x2="190" y2="170" gradientUnits="userSpaceOnUse">
      <stop stop-color="#8B5CF6"/>
      <stop offset="1" stop-color="#22D3EE"/>
    </linearGradient>
  </defs>
  <rect x="20" y="20" width="216" height="216" rx="54" fill="url(#bg)"/>
  <rect x="20" y="20" width="216" height="216" rx="54" stroke="url(#ring)" stroke-width="4" opacity="0.85"/>
  <circle cx="128" cy="128" r="63" stroke="url(#ring)" stroke-width="10" opacity="0.95"/>
  <circle cx="128" cy="128" r="28" fill="#0F172A" stroke="#7DD3FC" stroke-width="4"/>
  <path d="M69 150C86 122 100 106 117 106C134 106 142 150 159 150C176 150 182 120 198 92" stroke="url(#wave)" stroke-width="12" stroke-linecap="round"/>
  <circle cx="196" cy="93" r="10" fill="#34D399"/>
  <circle cx="69" cy="150" r="7" fill="#67E8F9" opacity="0.9"/>
  <path d="M128 82V174" stroke="#E2E8F0" stroke-width="4" stroke-linecap="round" opacity="0.75"/>
  <path d="M110 92C117 87 122 84 128 84C134 84 139 87 146 92" stroke="#E2E8F0" stroke-width="4" stroke-linecap="round" opacity="0.75"/>
</svg>
