<svg width="1600" height="900" viewBox="0 0 1600 900" fill="none" xmlns="http://www.w3.org/2000/svg">
  <defs>
    <linearGradient id="bg" x1="120" y1="92" x2="1440" y2="822" gradientUnits="userSpaceOnUse">
      <stop stop-color="#08111F"/>
      <stop offset="1" stop-color="#0A152A"/>
    </linearGradient>
    <linearGradient id="g" x1="314" y1="228" x2="1294" y2="684" gradientUnits="userSpaceOnUse">
      <stop stop-color="#67E8F9"/>
      <stop offset="0.5" stop-color="#A855F7"/>
      <stop offset="1" stop-color="#34D399"/>
    </linearGradient>
  </defs>
  <rect width="1600" height="900" rx="40" fill="url(#bg)"/>
  <text x="176" y="140" fill="#F8FAFC" font-size="56" font-family="Inter, Arial, sans-serif" font-weight="800">Pitch Anchor + motion map</text>
  <rect x="250" y="220" width="420" height="450" rx="30" fill="#0D172B" stroke="rgba(255,255,255,0.08)"/>
  <rect x="352" y="282" width="216" height="326" rx="36" fill="#101B34" stroke="url(#g)" stroke-width="4"/>
  <circle cx="460" cy="590" r="12" fill="#34D399"/>
  <path d="M460 520V350" stroke="#E2E8F0" stroke-width="5" stroke-linecap="round"/>
  <path d="M460 350L432 382" stroke="#E2E8F0" stroke-width="5" stroke-linecap="round"/>
  <path d="M460 350L488 382" stroke="#E2E8F0" stroke-width="5" stroke-linecap="round"/>
  <text x="314" y="640" fill="#D8E5FF" font-size="30" font-family="Inter, Arial, sans-serif" font-weight="700">Anchor current posture</text>
  <text x="314" y="680" fill="#9FB3D9" font-size="24" font-family="Inter, Arial, sans-serif">Set Sa / octave, then map motion around it.</text>
  <rect x="770" y="230" width="600" height="430" rx="32" fill="#0D172B" stroke="rgba(255,255,255,0.08)"/>
  <path d="M832 590C924 560 998 516 1060 474C1126 430 1196 364 1306 300" stroke="url(#g)" stroke-width="14" stroke-linecap="round"/>
  <circle cx="1306" cy="300" r="14" fill="#34D399"/>
  <circle cx="832" cy="590" r="12" fill="#67E8F9"/>
  <text x="834" y="286" fill="#E2E8F0" font-size="36" font-family="Inter, Arial, sans-serif" font-weight="700">Frequency sweep</text>
  <text x="834" y="338" fill="#9FB3D9" font-size="26" font-family="Inter, Arial, sans-serif">Each control mode uses a different axis, but the same anchored note system stays stable.</text>
  <text x="836" y="662" fill="#C7D4ED" font-size="26" font-family="Inter, Arial, sans-serif">Western note + Indian swara update live with the motion-controlled pitch.</text>
</svg>
