<svg xmlns="http://www.w3.org/2000/svg" viewBox="0 0 1920 1080" preserveAspectRatio="xMidYMid slice">
  <defs>
    <linearGradient id="sky" x1="0" y1="0" x2="0" y2="1">
      <stop offset="0%" stop-color="#9fd9ff"/>
      <stop offset="42%" stop-color="#c6ecff"/>
      <stop offset="72%" stop-color="#e8f7ff"/>
      <stop offset="100%" stop-color="#f4fbff"/>
    </linearGradient>
    <linearGradient id="water" x1="0" y1="0" x2="0" y2="1">
      <stop offset="0%" stop-color="#7fc2e3"/>
      <stop offset="56%" stop-color="#9ad0e8"/>
      <stop offset="100%" stop-color="#b6deef"/>
    </linearGradient>
    <linearGradient id="hill" x1="0" y1="0" x2="1" y2="0">
      <stop offset="0%" stop-color="#b8d9e6"/>
      <stop offset="100%" stop-color="#a4cad8"/>
    </linearGradient>
  </defs>
  <rect width="1920" height="1080" fill="url(#sky)"/>
  <ellipse cx="420" cy="220" rx="310" ry="95" fill="#ffffff" fill-opacity="0.65"/>
  <ellipse cx="980" cy="180" rx="380" ry="105" fill="#ffffff" fill-opacity="0.58"/>
  <ellipse cx="1540" cy="240" rx="290" ry="92" fill="#ffffff" fill-opacity="0.62"/>
  <path d="M0 660 C240 600 380 620 560 648 C760 680 940 600 1150 632 C1380 666 1600 604 1920 644 L1920 760 L0 760 Z" fill="url(#hill)" fill-opacity="0.92"/>
  <rect x="0" y="720" width="1920" height="360" fill="url(#water)"/>
  <rect x="0" y="716" width="1920" height="6" fill="#eaf9ff" fill-opacity="0.95"/>
  <g fill="#ffffff" fill-opacity="0.23">
    <ellipse cx="190" cy="800" rx="130" ry="5"/>
    <ellipse cx="520" cy="850" rx="180" ry="6"/>
    <ellipse cx="920" cy="810" rx="150" ry="5"/>
    <ellipse cx="1290" cy="870" rx="170" ry="6"/>
    <ellipse cx="1680" cy="830" rx="145" ry="5"/>
  </g>
</svg>
